Coordinates
version=1
nRows=26
nColumns=24
inDegrees=yes

Units are S.I. units (second, meters, Newtons, ...)
If the header above contains a line with 'inDegrees', this indicates whether rotational values are in degrees (yes) or radians (no).

endheader
time	pelvis_tilt	pelvis_list	pelvis_rotation	pelvis_tx	pelvis_ty	pelvis_tz	hip_flexion_r	hip_adduction_r	hip_rotation_r	knee_angle_r	ankle_angle_r	subtalar_angle_r	mtp_angle_r	hip_flexion_l	hip_adduction_l	hip_rotation_l	knee_angle_l	ankle_angle_l	subtalar_angle_l	mtp_angle_l	lumbar_extension	lumbar_bending	lumbar_rotation
     26.00000000	    -14.28962731	      5.17260605	      4.02972573	      0.93924197	      0.99818264	     -0.56851770	     -9.17817484	     -2.37876381	     11.95750410	      2.33200710	     15.84838758	    -24.23057839	      0.00000000	     45.87228548	      3.84356351	     -3.15644768	    -62.54738180	     15.05286260	     -4.47655330	      0.00000000	    -36.89367124	     -6.50267373	      0.66060790
     26.01000000	    -14.34062885	      5.17586098	      3.77710572	      0.93722212	      0.99525407	     -0.56857723	     -9.76806601	     -2.43679877	     11.93636276	      2.63481155	     16.16789026	    -23.85966502	      0.00000000	     46.70942575	      3.78140556	     -3.13487619	    -61.22888231	     15.87731783	     -4.09761353	      0.00000000	    -36.87369564	     -6.60741323	      1.03941905
     26.02000000	    -14.41338711	      5.15415607	      3.48777943	      0.93522196	      0.99227817	     -0.56858517	    -10.21214514	     -2.45236147	     11.78603490	      2.69736164	     16.83858413	    -23.01956630	      0.00000000	     47.45612743	      3.68557753	     -3.06722805	    -59.87768006	     16.68067050	     -3.67884513	      0.00000000	    -36.82803220	     -6.75458555	      1.22939988
     26.03000000	    -14.44805819	      5.10895576	      3.45783889	      0.93309783	      0.98910709	     -0.56910429	    -10.75476171	     -2.41575078	     11.26745882	      2.82843957	     17.62972058	    -21.83022008	      0.00000000	     48.11432501	      3.82672629	     -2.70852697	    -58.57005568	     17.36887060	     -3.35125661	      0.00000000	    -36.85241259	     -6.69477158	      1.25817704
     26.04000000	    -14.41144292	      5.13374950	      3.15765424	      0.93150877	      0.98598088	     -0.56895348	    -11.31954463	     -2.46264016	     11.42582833	      2.85624701	     18.05490025	    -21.69228184	      0.00000000	     48.62084384	      3.76980410	     -2.56736391	    -57.42875846	     18.13306300	     -2.46085097	      0.00000000	    -36.89742923	     -6.89786396	      1.48314985
     26.05000000	    -14.38105344	      5.16788240	      2.99582811	      0.92983638	      0.98277181	     -0.56915227	    -11.88144649	     -2.50281101	     11.39801722	      2.87464929	     18.45259555	    -21.39999041	      0.00000000	     49.03005148	      3.84573396	     -2.31671456	    -56.34460170	     18.69397775	     -1.61790234	      0.00000000	    -36.95621449	     -7.03073059	      1.54666939
     26.06000000	    -14.31601178	      5.21367048	      2.87309591	      0.92829933	      0.97953761	     -0.56943422	    -12.46260081	     -2.53795087	     11.30295344	      2.81848631	     18.88795967	    -21.08131538	      0.00000000	     49.30878777	      3.96360685	     -2.05088373	    -55.37039058	     19.50224130	     -0.66684198	      0.00000000	    -37.04122977	     -7.18454623	      1.53716418
     26.07000000	    -14.16880816	      5.38753777	      2.68882281	      0.92688900	      0.97640007	     -0.56967012	    -13.18496950	     -2.72397981	     11.35560106	      2.85390848	     19.28712994	    -20.98285086	      0.00000000	     49.40029661	      4.14257559	     -1.91979548	    -54.54077036	     20.14283319	      0.00764997	      0.00000000	    -37.22517926	     -7.44834127	      1.53126308
     26.08000000	    -14.10008757	      5.52738989	      2.55854249	      0.92575661	      0.97301805	     -0.57012500	    -13.79518835	     -2.86710574	     11.30210175	      2.77609605	     19.62913613	    -20.78303769	      0.00000000	     49.53768594	      4.30872531	     -1.78816140	    -53.92217610	     20.81185536	      1.04820059	      0.00000000	    -37.26498642	     -7.64850484	      1.52975397
     26.09000000	    -13.98350961	      5.70155322	      2.41384711	      0.92480793	      0.96970037	     -0.57072238	    -14.43975460	     -3.04604464	     11.17073908	      2.65475204	     20.03568988	    -20.57618952	      0.00000000	     49.51493196	      4.49128910	     -1.72477056	    -53.48740829	     21.41957231	      1.90205135	      0.00000000	    -37.34336024	     -7.87803021	      1.48626025
     26.10000000	    -13.89498600	      5.96942671	      2.20443202	      0.92418131	      0.96636720	     -0.57135134	    -15.05856504	     -3.34127381	     11.01407959	      2.51133283	     20.48276292	    -20.23379158	      0.00000000	     49.40698448	      4.72790093	     -1.75997324	    -53.20173988	     21.91486559	      2.64391963	      0.00000000	    -37.36384628	     -8.25763978	      1.46522664
     26.11000000	    -13.84299486	      6.25163482	      1.96406907	      0.92374429	      0.96299874	     -0.57206754	    -15.61929112	     -3.66675436	     10.79599702	      2.33831342	     20.95379600	    -19.80371556	      0.00000000	     49.25251589	      4.95448775	     -1.83955483	    -53.10744536	     22.36546386	      3.25575974	      0.00000000	    -37.32369777	     -8.62592339	      1.55884971
     26.12000000	    -13.83636989	      6.46212807	      1.74669097	      0.92352985	      0.95972808	     -0.57296115	    -16.10984028	     -3.92716579	     10.61063050	      2.07277308	     21.21553321	    -19.39960236	      0.00000000	     49.05448276	      5.16855785	     -1.84167497	    -53.19775303	     22.72292717	      3.78740686	      0.00000000	    -37.21475053	     -8.94186297	      1.60861929
     26.13000000	    -13.90453708	      6.65169222	      1.40670468	      0.92354134	      0.95644587	     -0.57379439	    -16.45876187	     -4.20386223	     10.56894130	      1.72553296	     21.35696789	    -19.09999158	      0.00000000	     48.80953804	      5.32558262	     -1.84067929	    -53.41068250	     22.85074139	      4.02395645	      0.00000000	    -36.99873619	     -9.28626525	      1.88604897
     26.14000000	    -13.94086822	      6.89818238	      1.00584954	      0.92390053	      0.95341386	     -0.57467292	    -16.84198281	     -4.56638253	     10.59749576	      1.37607737	     21.33897476	    -18.91501187	      0.00000000	     48.34646045	      5.50716560	     -1.91497276	    -53.65662393	     22.80894325	      4.11259748	      0.00000000	    -36.80088462	     -9.72249214	      2.05979379
     26.15000000	    -14.07007406	      7.00084760	      0.53133672	      0.92440790	      0.95034090	     -0.57550077	    -16.98553704	     -4.79735529	     10.62422599	      0.81153417	     21.41723784	    -18.53056868	      0.00000000	     47.90598551	      5.51945668	     -1.99114304	    -53.91091963	     22.78360191	      3.82343555	      0.00000000	    -36.46501207	    -10.04280143	      2.57124786
     26.16000000	    -14.17063301	      7.14470006	      0.06490693	      0.92514229	      0.94770013	     -0.57659545	    -17.15816022	     -5.09100705	     10.26741621	      0.22940178	     21.54070022	    -17.47132611	      0.00000000	     47.41673951	      5.60037780	     -2.13695650	    -54.35475388	     24.46382995	      3.40450850	      0.00000000	    -36.18583750	    -10.37451465	      2.96941556
     26.17000000	    -14.34762715	      7.11809196	     -0.45961336	      0.92597904	      0.94513552	     -0.57760342	    -17.17048779	     -5.23373455	     10.04903283	     -0.44259803	     21.51010473	    -16.63381126	      0.00000000	     47.12678481	      5.50978662	     -2.24934745	    -55.05753201	     26.06354020	      2.95135059	      0.00000000	    -35.81472174	    -10.57247493	      3.55480499
     26.18000000	    -14.62291538	      7.12403525	     -0.94261913	      0.92682572	      0.94294400	     -0.57886762	    -16.97863689	     -5.40727317	      9.91620881	     -1.28507913	     21.28961298	    -16.00950622	      0.00000000	     46.99708957	      5.50034714	     -2.34566106	    -55.66721503	     26.61624766	      2.22429512	      0.00000000	    -35.39538862	    -10.76808951	      4.14506822
     26.19000000	    -14.97839026	      7.01789954	     -1.37621893	      0.92773893	      0.94105959	     -0.58021298	    -16.62753338	     -5.46988665	      9.57139795	     -2.25429629	     21.05363710	    -15.00664032	      0.00000000	     46.95972104	      5.40926970	     -2.39207914	    -56.24359227	     27.14873220	      1.81155189	      0.00000000	    -34.91791574	    -10.80349456	      4.69713366
     26.20000000	    -15.35651405	      6.99267146	     -1.77031056	      0.92886007	      0.93980857	     -0.58152606	    -16.13771841	     -5.57240730	      9.36837304	     -3.42405362	     20.31777936	    -14.59239544	      0.00000000	     46.82500500	      5.36520661	     -2.53651358	    -56.58639815	     27.59953982	      1.44491366	      0.00000000	    -34.46943550	    -10.94062657	      5.02829630
     26.21000000	    -15.69073434	      6.96734002	     -2.02427798	      0.93012151	      0.93901462	     -0.58309968	    -15.60492517	     -5.66394531	      8.72464901	     -4.76509249	     19.77194264	    -13.44391606	      0.00000000	     46.55511483	      5.43092699	     -2.56597230	    -56.74321426	     28.03321050	      0.86025802	      0.00000000	    -34.13939581	    -10.99928395	      5.39269588
     26.22000000	    -16.04031296	      7.12913994	     -2.13619517	      0.93168670	      0.93856328	     -0.58488980	    -14.88016621	     -5.91780072	      7.80665008	     -6.43840752	     19.14553909	    -12.21810554	      0.00000000	     46.16304703	      5.70781552	     -2.66415617	    -56.62952682	     28.47396928	      0.60684028	      0.00000000	    -33.81924914	    -11.15426757	      5.39333149
     26.23000000	    -16.15437073	      7.15550920	     -2.25920915	      0.93334318	      0.93889733	     -0.58648467	    -14.28908012	     -6.03217054	      7.04934051	     -8.24006616	     18.16295540	    -11.27782934	      0.00000000	     45.40336590	      5.88385257	     -2.65574533	    -56.36047746	     28.91056364	      0.35433344	      0.00000000	    -33.76599210	    -11.20830219	      5.40733894
     26.24000000	    -16.16812834	      7.32197885	     -2.28577107	      0.93526563	      0.93966752	     -0.58828229	    -13.65303840	     -6.28731770	      6.18848129	    -10.29808854	     16.90572291	    -10.46474622	      0.00000000	     44.40643108	      6.27230316	     -2.62405741	    -55.91274174	     29.34959660	      0.37786685	      0.00000000	    -33.82227298	    -11.33433185	      5.22436726
     26.25000000	    -16.12465151	      7.37920214	     -2.35404033	      0.93719679	      0.94081346	     -0.59001424	    -12.74751976	     -6.46282034	      5.33249119	    -12.86375513	     15.52232111	     -9.43919234	      0.00000000	     43.27016310	      6.52224214	     -2.63552847	    -55.34000897	     29.82691810	      0.10722841	      0.00000000	    -33.91580743	    -11.38082884	      5.15463525
